<svg width="38" height="36" viewBox="0 0 38 36" fill="none" xmlns="http://www.w3.org/2000/svg">
<path d="M6.01491 35.9996C9.33631 35.9996 12.0288 33.4218 12.0288 30.242C12.0288 27.0621 9.33631 24.4844 6.01491 24.4844C2.69351 24.4844 0.000976562 27.0621 0.000976562 30.242C0.000976562 33.4218 2.69351 35.9996 6.01491 35.9996Z" fill="#8800FF"/>
<path d="M31.0999 11.5152C34.4213 11.5152 37.1138 8.93743 37.1138 5.7576C37.1138 2.57776 34.4213 0 31.0999 0C27.7785 0 25.0859 2.57776 25.0859 5.7576C25.0859 8.93743 27.7785 11.5152 31.0999 11.5152Z" fill="#FF675F"/>
<path d="M21.828 22.7229C16.536 17.5422 3.95574 15.4387 0.823222 9.27246C-2.77384 2.17464 6.31611 -3.27645 10.7669 2.29484C12.6879 4.69884 11.7839 8.37697 13.0645 11.4601C16.7181 20.2828 27.3084 20.1746 34.0505 24.8564C41.5522 30.0611 33.699 39.4488 27.3649 34.6948C24.3956 32.4651 25.5318 29.8808 24.6153 27.02C24.1445 25.5476 22.9517 23.8287 21.8343 22.7289L21.828 22.7229Z" fill="url(#paint0_linear_11369_98121)"/>
<defs>
<linearGradient id="paint0_linear_11369_98121" x1="-4.39346" y1="-1.33521" x2="39.6712" y2="39.1413" gradientUnits="userSpaceOnUse">
<stop offset="0.14" stop-color="#FF675F"/>
<stop offset="0.23" stop-color="#E04F83"/>
<stop offset="0.34" stop-color="#C137A9"/>
<stop offset="0.45" stop-color="#A723C8"/>
<stop offset="0.57" stop-color="#9413E0"/>
<stop offset="0.7" stop-color="#8608F1"/>
<stop offset="0.83" stop-color="#7D02FB"/>
<stop offset="1" stop-color="#7B00FF"/>
</linearGradient>
</defs>
</svg>
