<svg width="24" height="24" viewBox="0 0 24 24" fill="none" xmlns="http://www.w3.org/2000/svg">
<path d="M6 7C6.55228 7 7 6.55228 7 6C7 5.44772 6.55228 5 6 5C5.44772 5 5 5.44772 5 6C5 6.55228 5.44772 7 6 7Z" fill="black"/>
<path d="M10.001 6C10.001 6.55228 9.55327 7 9.00098 7C8.44869 7 8.00098 6.55228 8.00098 6C8.00098 5.44772 8.44869 5 9.00098 5C9.55327 5 10.001 5.44772 10.001 6Z" fill="black"/>
<path d="M11.999 7C12.5513 7 12.999 6.55228 12.999 6C12.999 5.44772 12.5513 5 11.999 5C11.4467 5 10.999 5.44772 10.999 6C10.999 6.55228 11.4467 7 11.999 7Z" fill="black"/>
<path d="M12.0005 12.9972C11.1921 12.2786 10.0464 12.0675 9.17402 12.8429C8.28054 13.6371 8.28054 15.0332 9.17402 15.8274L11.3361 17.7492C11.715 18.086 12.286 18.086 12.6649 17.7492L14.8269 15.8274C15.7204 15.0332 15.7204 13.6371 14.8269 12.8429C13.9546 12.0675 12.8089 12.2786 12.0005 12.9972Z" fill="black"/>
<path fill-rule="evenodd" clip-rule="evenodd" d="M2 5C2 3.34315 3.34315 2 5 2H19C20.6569 2 22 3.34315 22 5V19C22 20.6569 20.6569 22 19 22H5C3.34315 22 2 20.6569 2 19V5ZM20 5V8H4V5C4 4.44772 4.44772 4 5 4H19C19.5523 4 20 4.44772 20 5ZM20 19V10H4V19C4 19.5523 4.44772 20 5 20H19C19.5523 20 20 19.5523 20 19Z" fill="black"/>
</svg>
